<svg width="1200" height="900" viewBox="0 0 1200 900" fill="none" xmlns="http://www.w3.org/2000/svg">
  <rect width="1200" height="900" rx="48" fill="url(#paint0_linear_2_4)"/>
  <circle cx="180" cy="154" r="170" fill="#D9A441" fill-opacity="0.34"/>
  <circle cx="1014" cy="758" r="194" fill="#B61F24" fill-opacity="0.24"/>
  <rect x="92" y="118" width="1016" height="666" rx="38" fill="#FFF7EF"/>
  <rect x="138" y="164" width="378" height="572" rx="28" fill="#181818"/>
  <rect x="182" y="206" width="292" height="174" rx="24" fill="#B61F24"/>
  <rect x="182" y="406" width="292" height="136" rx="24" fill="#2A2A2A"/>
  <rect x="182" y="568" width="132" height="118" rx="20" fill="#D9A441"/>
  <rect x="342" y="568" width="132" height="118" rx="20" fill="#F2E4D3"/>
  <rect x="564" y="164" width="498" height="152" rx="28" fill="#FFFFFF"/>
  <rect x="604" y="202" width="198" height="18" rx="9" fill="#171717"/>
  <rect x="604" y="240" width="146" height="12" rx="6" fill="#8A8580"/>
  <rect x="846" y="198" width="174" height="88" rx="22" fill="#161616"/>
  <path d="M590 444C590 415.281 613.281 392 642 392H770C798.719 392 822 415.281 822 444V480H590V444Z" fill="#D9A441"/>
  <path d="M840 438C840 412.595 860.595 392 886 392H1006C1031.41 392 1052 412.595 1052 438V480H840V438Z" fill="#B61F24"/>
  <rect x="564" y="352" width="228" height="162" rx="28" fill="#FFFFFF"/>
  <rect x="824" y="352" width="238" height="162" rx="28" fill="#FFFFFF"/>
  <rect x="598" y="388" width="160" height="14" rx="7" fill="#202020"/>
  <rect x="598" y="420" width="118" height="12" rx="6" fill="#938C84"/>
  <rect x="858" y="388" width="170" height="14" rx="7" fill="#202020"/>
  <rect x="858" y="420" width="124" height="12" rx="6" fill="#938C84"/>
  <rect x="564" y="548" width="498" height="156" rx="28" fill="#161616"/>
  <path d="M622 650L698 592L758 624L850 568L946 608L1006 560" stroke="#D9A441" stroke-width="16" stroke-linecap="round" stroke-linejoin="round"/>
  <circle cx="622" cy="650" r="12" fill="#D9A441"/>
  <circle cx="698" cy="592" r="12" fill="#D9A441"/>
  <circle cx="758" cy="624" r="12" fill="#D9A441"/>
  <circle cx="850" cy="568" r="12" fill="#D9A441"/>
  <circle cx="946" cy="608" r="12" fill="#D9A441"/>
  <circle cx="1006" cy="560" r="12" fill="#D9A441"/>
  <defs>
    <linearGradient id="paint0_linear_2_4" x1="84" y1="44" x2="1106" y2="830" gradientUnits="userSpaceOnUse">
      <stop stop-color="#131313"/>
      <stop offset="1" stop-color="#332E2A"/>
    </linearGradient>
  </defs>
</svg>
